<mxfile host="app.diagrams.net" agent="Mozilla/5.0 (Windows NT 10.0; Win64; x64) AppleWebKit/537.36 (KHTML, like Gecko) Chrome/135.0.0.0 Safari/537.36" version="26.2.13">
  <diagram name="第 1 页" id="hnUDsFR895pse2CBVE6p">
    <mxGraphModel dx="985" dy="512" grid="0" gridSize="10" guides="1" tooltips="1" connect="1" arrows="1" fold="1" page="1" pageScale="1" pageWidth="827" pageHeight="1169" math="0" shadow="0">
      <root>
        <mxCell id="0" />
        <mxCell id="1" parent="0" />
        <mxCell id="lUhSVOAi8Fo3o7YV4FDi-3" value="字体" style="rounded=1;whiteSpace=wrap;html=1;strokeColor=#3700CC;align=center;verticalAlign=middle;fontFamily=Helvetica;fontSize=12;fontColor=default;fillColor=#6a00ff;sketch=1;curveFitting=1;jiggle=2;" vertex="1" parent="1">
          <mxGeometry x="150" y="210" width="120" height="30" as="geometry" />
        </mxCell>
        <mxCell id="lUhSVOAi8Fo3o7YV4FDi-4" value="" style="rounded=1;whiteSpace=wrap;html=1;sketch=1;jiggle=2;curveFitting=1;strokeColor=#3700CC;align=center;verticalAlign=middle;fontFamily=Helvetica;fontSize=12;fontColor=default;fillColor=#6a00ff;" vertex="1" parent="1">
          <mxGeometry x="310" y="210" width="120" height="60" as="geometry" />
        </mxCell>
        <mxCell id="lUhSVOAi8Fo3o7YV4FDi-5" value="Text" style="text;strokeColor=none;align=center;fillColor=none;html=1;verticalAlign=middle;whiteSpace=wrap;rounded=0;fontFamily=Helvetica;fontSize=12;fontColor=default;" vertex="1" parent="1">
          <mxGeometry x="415" y="321" width="60" height="30" as="geometry" />
        </mxCell>
      </root>
    </mxGraphModel>
  </diagram>
</mxfile>
